<svg width="48" height="48" viewBox="0 0 48 48" fill="none" xmlns="http://www.w3.org/2000/svg">
<rect x="2.45" y="14.45" width="43.65" height="19.35" rx="3.6" fill="white" stroke="#B8860B" stroke-width="0.9"/>
<ellipse cx="36.7282" cy="24.4288" rx="5.16375" ry="4.55625" fill="url(#paint0_linear_619_199)"/>
<path d="M38.8256 21.5611L38.5846 25.3175C38.5563 25.7238 38.6035 26.0215 38.7264 26.2105C38.8492 26.39 39.0193 26.4798 39.2367 26.4798C39.5013 26.4798 39.7328 26.4042 39.9313 26.253C40.1392 26.1018 40.3093 25.9034 40.4416 25.6577C40.5739 25.412 40.6731 25.1332 40.7392 24.8213C40.8148 24.5 40.8526 24.174 40.8526 23.8433C40.8526 23.3897 40.7818 22.9313 40.64 22.4683C40.4983 22.0052 40.2573 21.5894 39.9171 21.2209C39.5863 20.8523 39.1469 20.5499 38.5988 20.3137C38.0507 20.0774 37.3703 19.9593 36.5576 19.9593C35.8016 19.9593 35.1401 20.0963 34.5731 20.3704C34.0061 20.6444 33.5289 20.9988 33.1414 21.4335C32.7634 21.8682 32.4799 22.3596 32.2909 22.9077C32.1019 23.4464 32.0074 23.9897 32.0074 24.5378C32.0169 25.3316 32.1492 26.0026 32.4043 26.5507C32.6595 27.0988 32.995 27.5429 33.4108 27.8831C33.8266 28.2233 34.3038 28.469 34.8424 28.6202C35.3811 28.762 35.9339 28.8281 36.5009 28.8187C36.8695 28.8092 37.1955 28.7903 37.479 28.762C37.7719 28.7336 38.0365 28.6958 38.2728 28.6486C38.509 28.5919 38.7217 28.5305 38.9107 28.4643C39.1091 28.3982 39.2981 28.3226 39.4777 28.2375V29.1872C39.1186 29.3479 38.6697 29.4755 38.131 29.57C37.6018 29.6645 37.049 29.7117 36.4726 29.7117C35.5465 29.7306 34.7338 29.6078 34.0345 29.3432C33.3352 29.0786 32.754 28.71 32.2909 28.2375C31.8279 27.765 31.4782 27.2122 31.242 26.579C31.0152 25.9459 30.9018 25.2655 30.9018 24.5378C30.9018 23.6779 31.053 22.9077 31.3554 22.2273C31.6672 21.5469 32.0783 20.9752 32.5886 20.5121C33.1084 20.0396 33.7084 19.6805 34.3888 19.4348C35.0787 19.1891 35.8016 19.0663 36.5576 19.0663C37.4648 19.0663 38.2586 19.208 38.939 19.4915C39.6194 19.775 40.1817 20.1436 40.6258 20.5972C41.07 21.0508 41.4007 21.5611 41.6181 22.1281C41.8449 22.6951 41.9583 23.2668 41.9583 23.8433C41.9583 24.3914 41.8827 24.8828 41.7315 25.3175C41.5897 25.7427 41.3913 26.1065 41.1361 26.4089C40.881 26.7019 40.5833 26.9287 40.2431 27.0893C39.9029 27.25 39.5391 27.335 39.1516 27.3445C38.6697 27.3634 38.3059 27.2642 38.0602 27.0468C37.8145 26.82 37.6538 26.5507 37.5782 26.2388C37.3798 26.5979 37.1152 26.8767 36.7844 27.0752C36.4631 27.2642 36.104 27.3539 35.7071 27.3445C35.3008 27.335 34.9606 27.2547 34.6865 27.1035C34.4125 26.9429 34.1904 26.7444 34.0203 26.5082C33.8502 26.2719 33.7273 26.012 33.6517 25.7285C33.5856 25.445 33.5525 25.171 33.5525 24.9064C33.5525 24.3583 33.6281 23.8716 33.7793 23.4464C33.94 23.0117 34.1526 22.6478 34.4172 22.3549C34.6912 22.0619 35.0031 21.8399 35.3527 21.6887C35.7118 21.5375 36.0898 21.4666 36.4867 21.476C36.7986 21.4855 37.0585 21.5422 37.2664 21.6461C37.4743 21.7406 37.6396 21.854 37.7625 21.9863L37.805 21.5611H38.8256ZM34.6582 24.9206C34.6582 25.1096 34.6771 25.2986 34.7149 25.4876C34.7621 25.6671 34.833 25.8325 34.9275 25.9837C35.022 26.1254 35.1448 26.2436 35.296 26.3381C35.4567 26.4231 35.6504 26.4656 35.8772 26.4656C36.1513 26.4656 36.3922 26.3948 36.6001 26.253C36.8175 26.1018 36.997 25.9034 37.1388 25.6577C37.2805 25.4025 37.3845 25.1048 37.4506 24.7646C37.5262 24.4244 37.564 24.0559 37.564 23.659C37.564 23.5172 37.5499 23.3708 37.5215 23.2196C37.5026 23.0589 37.4554 22.9172 37.3798 22.7943C37.3042 22.662 37.1908 22.5533 37.0396 22.4683C36.8978 22.3832 36.7088 22.3407 36.4726 22.3407C36.1607 22.3313 35.8867 22.4116 35.6504 22.5817C35.4236 22.7518 35.2346 22.9691 35.0834 23.2337C34.9417 23.4889 34.833 23.7677 34.7574 24.0701C34.6912 24.3725 34.6582 24.656 34.6582 24.9206Z" fill="black"/>
<path d="M13.8138 22.3365C13.4855 21.9736 13.0967 21.6885 12.6474 21.4812C12.1981 21.2738 11.7445 21.1701 11.2866 21.1701C10.8373 21.1701 10.414 21.2565 10.0165 21.4293C9.62774 21.5935 9.28214 21.8268 8.97974 22.1292C8.68598 22.4316 8.45702 22.7858 8.29286 23.1919C8.1287 23.5893 8.04662 24.0213 8.04662 24.4879C8.04662 24.9458 8.1287 25.3778 8.29286 25.7839C8.45702 26.1813 8.68598 26.5312 8.97974 26.8336C9.28214 27.136 9.62774 27.3736 10.0165 27.5464C10.414 27.7192 10.8373 27.8056 11.2866 27.8056C11.7445 27.8056 12.1938 27.7106 12.6345 27.5205C13.0751 27.3218 13.4682 27.054 13.8138 26.717L14.721 27.6631C14.4186 27.9655 14.073 28.229 13.6842 28.4536C13.3041 28.6783 12.9023 28.8511 12.4789 28.972C12.0642 29.093 11.6409 29.1535 11.2089 29.1535C10.5436 29.1535 9.92582 29.0368 9.35558 28.8036C8.78534 28.5616 8.28422 28.229 7.85222 27.8056C7.42886 27.3823 7.09622 26.8898 6.8543 26.3282C6.61238 25.758 6.49142 25.1488 6.49142 24.5008C6.49142 23.8528 6.61238 23.2524 6.8543 22.6994C7.09622 22.1378 7.43318 21.6453 7.86518 21.222C8.30582 20.7986 8.81126 20.4703 9.3815 20.237C9.96038 20.0037 10.5868 19.8871 11.2607 19.8871C11.6927 19.8871 12.1161 19.9432 12.5308 20.0556C12.9455 20.1679 13.3386 20.3277 13.7101 20.5351C14.0817 20.7424 14.4143 20.993 14.7081 21.2868L13.8138 22.3365ZM15.204 19.9778H22.4745V21.2868H19.5974V29.0498H18.0681V21.2868H15.204V19.9778ZM23.7848 19.9778H29.876L29.8631 21.2868H25.3141V23.9824H29.4354V25.2784H25.3141V29.0498H23.7848V19.9778Z" fill="black"/>
<defs>
<linearGradient id="paint0_linear_619_199" x1="36.4242" y1="19.6664" x2="36.7436" y2="29.3602" gradientUnits="userSpaceOnUse">
<stop offset="0.4" stop-color="#FFD700"/>
<stop offset="0.75" stop-color="#DAA520"/>
<stop offset="1" stop-color="#B8860B"/>
</linearGradient>
</defs>
</svg>
