<svg width="842" height="595" viewBox="0 0 842 595" fill="none" xmlns="http://www.w3.org/2000/svg">
<g clip-path="url(#clip0_603_193)">
<rect width="595" height="842" transform="matrix(0 1 -1 0 842 0)" fill="#C8C8C8"/>
<path d="M202.135 367.48C198.951 367.48 196.215 366.752 193.927 365.296C191.655 363.824 189.903 361.744 188.671 359.056C187.455 356.352 186.847 353.144 186.847 349.432C186.847 345.736 187.455 342.576 188.671 339.952C189.887 337.328 191.631 335.32 193.903 333.928C196.191 332.52 198.935 331.816 202.135 331.816C204.679 331.816 206.935 332.336 208.903 333.376C210.871 334.4 212.455 335.792 213.655 337.552C214.871 339.312 215.591 341.272 215.815 343.432H209.647C209.407 342.152 208.959 341.008 208.303 340C207.663 338.992 206.815 338.192 205.759 337.6C204.703 337.008 203.439 336.712 201.967 336.712C200.127 336.712 198.559 337.152 197.263 338.032C195.983 338.896 194.999 340.272 194.311 342.16C193.639 344.048 193.303 346.496 193.303 349.504C193.303 354.064 194.055 357.384 195.559 359.464C197.063 361.544 199.199 362.584 201.967 362.584C203.439 362.584 204.703 362.264 205.759 361.624C206.815 360.968 207.663 360.104 208.303 359.032C208.959 357.944 209.407 356.76 209.647 355.48H215.815C215.623 357.048 215.223 358.552 214.615 359.992C214.023 361.432 213.183 362.72 212.095 363.856C211.007 364.976 209.639 365.864 207.991 366.52C206.359 367.16 204.407 367.48 202.135 367.48ZM231.06 367.48C228.676 367.48 226.572 366.976 224.748 365.968C222.94 364.944 221.524 363.488 220.5 361.6C219.492 359.712 218.988 357.464 218.988 354.856C218.988 352.312 219.444 350.056 220.356 348.088C221.284 346.104 222.62 344.544 224.364 343.408C226.124 342.272 228.244 341.704 230.724 341.704C233.172 341.704 235.228 342.224 236.892 343.264C238.556 344.304 239.82 345.76 240.684 347.632C241.548 349.488 241.98 351.664 241.98 354.16V355.936H224.82C224.804 357.344 225.028 358.592 225.492 359.68C225.956 360.768 226.644 361.624 227.556 362.248C228.468 362.856 229.596 363.16 230.94 363.16C232.316 363.16 233.508 362.856 234.516 362.248C235.54 361.624 236.22 360.68 236.556 359.416H241.884C241.596 361.144 240.908 362.608 239.82 363.808C238.748 365.008 237.436 365.92 235.884 366.544C234.348 367.168 232.74 367.48 231.06 367.48ZM224.796 352.312H236.46C236.46 351.112 236.244 350.032 235.812 349.072C235.396 348.096 234.764 347.328 233.916 346.768C233.068 346.192 231.996 345.904 230.7 345.904C229.42 345.904 228.34 346.216 227.46 346.84C226.58 347.464 225.916 348.272 225.468 349.264C225.02 350.24 224.796 351.256 224.796 352.312ZM246.121 367V342.184H251.833V345.736C252.217 345.096 252.737 344.48 253.393 343.888C254.065 343.296 254.889 342.816 255.865 342.448C256.841 342.08 257.985 341.896 259.297 341.896C260.833 341.896 262.257 342.2 263.569 342.808C264.897 343.416 265.961 344.368 266.761 345.664C267.577 346.96 267.985 348.632 267.985 350.68V367H262.129V351.376C262.129 349.744 261.681 348.536 260.785 347.752C259.889 346.952 258.761 346.552 257.401 346.552C256.473 346.552 255.593 346.712 254.761 347.032C253.929 347.336 253.249 347.808 252.721 348.448C252.209 349.072 251.953 349.856 251.953 350.8V367H246.121ZM281.782 367.192C279.814 367.192 278.286 366.936 277.198 366.424C276.126 365.896 275.382 365.152 274.966 364.192C274.55 363.232 274.342 362.088 274.342 360.76V346.312H270.31V342.184H274.51L275.974 334.816H280.174V342.16H285.718V346.312H280.174L280.198 360.544C280.198 361.28 280.278 361.824 280.438 362.176C280.614 362.512 280.886 362.736 281.254 362.848C281.638 362.944 282.142 362.992 282.766 362.992H285.838V366.688C285.502 366.816 285.006 366.928 284.35 367.024C283.71 367.136 282.854 367.192 281.782 367.192ZM308.047 367V337.552H297.247V332.296H324.319V337.552H313.903V367H308.047ZM334.121 367.48C331.753 367.48 329.689 366.976 327.929 365.968C326.169 364.944 324.801 363.48 323.825 361.576C322.865 359.672 322.385 357.384 322.385 354.712C322.385 352.12 322.857 349.848 323.801 347.896C324.745 345.944 326.089 344.424 327.833 343.336C329.593 342.248 331.697 341.704 334.145 341.704C336.513 341.704 338.569 342.224 340.313 343.264C342.057 344.304 343.401 345.792 344.345 347.728C345.305 349.664 345.785 351.992 345.785 354.712C345.785 357.224 345.329 359.44 344.417 361.36C343.521 363.264 342.201 364.76 340.457 365.848C338.729 366.936 336.617 367.48 334.121 367.48ZM334.145 363.04C335.489 363.04 336.593 362.672 337.457 361.936C338.337 361.2 338.993 360.192 339.425 358.912C339.857 357.632 340.073 356.176 340.073 354.544C340.073 353.024 339.881 351.624 339.497 350.344C339.113 349.064 338.481 348.04 337.601 347.272C336.737 346.488 335.585 346.096 334.145 346.096C332.785 346.096 331.657 346.456 330.761 347.176C329.881 347.88 329.225 348.872 328.793 350.152C328.361 351.416 328.145 352.88 328.145 354.544C328.145 356.048 328.337 357.448 328.721 358.744C329.105 360.024 329.737 361.064 330.617 361.864C331.497 362.648 332.673 363.04 334.145 363.04ZM360.103 367V332.296H382.807L382.783 337.24H366.031V347.224H380.815V352.096H366.031V367H360.103ZM396.363 367.48C393.995 367.48 391.931 366.976 390.171 365.968C388.411 364.944 387.043 363.48 386.067 361.576C385.107 359.672 384.627 357.384 384.627 354.712C384.627 352.12 385.099 349.848 386.043 347.896C386.987 345.944 388.331 344.424 390.075 343.336C391.835 342.248 393.939 341.704 396.387 341.704C398.755 341.704 400.811 342.224 402.555 343.264C404.299 344.304 405.643 345.792 406.587 347.728C407.547 349.664 408.027 351.992 408.027 354.712C408.027 357.224 407.571 359.44 406.659 361.36C405.763 363.264 404.443 364.76 402.699 365.848C400.971 366.936 398.859 367.48 396.363 367.48ZM396.387 363.04C397.731 363.04 398.835 362.672 399.699 361.936C400.579 361.2 401.235 360.192 401.667 358.912C402.099 357.632 402.315 356.176 402.315 354.544C402.315 353.024 402.123 351.624 401.739 350.344C401.355 349.064 400.723 348.04 399.843 347.272C398.979 346.488 397.827 346.096 396.387 346.096C395.027 346.096 393.899 346.456 393.003 347.176C392.123 347.88 391.467 348.872 391.035 350.152C390.603 351.416 390.387 352.88 390.387 354.544C390.387 356.048 390.579 357.448 390.963 358.744C391.347 360.024 391.979 361.064 392.859 361.864C393.739 362.648 394.915 363.04 396.387 363.04ZM411.929 367V342.184H417.521V347.56C417.921 346.328 418.489 345.28 419.225 344.416C419.977 343.536 420.857 342.864 421.865 342.4C422.873 341.936 423.969 341.704 425.153 341.704C425.441 341.704 425.721 341.72 425.993 341.752C426.265 341.784 426.465 341.84 426.593 341.92V347.512C426.417 347.432 426.185 347.376 425.897 347.344C425.625 347.312 425.385 347.296 425.177 347.296C423.977 347.2 422.913 347.248 421.985 347.44C421.073 347.632 420.297 347.96 419.657 348.424C419.033 348.872 418.561 349.448 418.241 350.152C417.921 350.84 417.761 351.648 417.761 352.576V367H411.929ZM439.293 367.192C437.325 367.192 435.797 366.936 434.709 366.424C433.637 365.896 432.893 365.152 432.477 364.192C432.061 363.232 431.853 362.088 431.853 360.76V346.312H427.821V342.184H432.021L433.485 334.816H437.685V342.16H443.229V346.312H437.685L437.709 360.544C437.709 361.28 437.789 361.824 437.949 362.176C438.125 362.512 438.397 362.736 438.765 362.848C439.149 362.944 439.653 362.992 440.277 362.992H443.349V366.688C443.013 366.816 442.517 366.928 441.861 367.024C441.221 367.136 440.365 367.192 439.293 367.192ZM456.185 367.48C454.969 367.48 453.793 367.304 452.657 366.952C451.537 366.584 450.529 366.056 449.633 365.368C448.737 364.664 448.025 363.8 447.497 362.776C446.969 361.752 446.705 360.56 446.705 359.2V342.184H452.561V358.528C452.561 359.872 452.985 360.976 453.833 361.84C454.697 362.704 455.993 363.136 457.721 363.136C459.289 363.136 460.545 362.728 461.489 361.912C462.433 361.08 462.905 359.888 462.905 358.336V342.184H468.713V367H464.225L463.577 362.152C463.273 363.512 462.737 364.584 461.969 365.368C461.217 366.136 460.329 366.68 459.305 367C458.297 367.32 457.257 367.48 456.185 367.48ZM474.125 367V342.184H479.837V345.736C480.221 345.096 480.741 344.48 481.397 343.888C482.069 343.296 482.893 342.816 483.869 342.448C484.845 342.08 485.989 341.896 487.301 341.896C488.837 341.896 490.261 342.2 491.573 342.808C492.901 343.416 493.965 344.368 494.765 345.664C495.581 346.96 495.989 348.632 495.989 350.68V367H490.133V351.376C490.133 349.744 489.685 348.536 488.789 347.752C487.893 346.952 486.765 346.552 485.405 346.552C484.477 346.552 483.597 346.712 482.765 347.032C481.933 347.336 481.253 347.808 480.725 348.448C480.213 349.072 479.957 349.856 479.957 350.8V367H474.125ZM511.778 367.48C509.394 367.48 507.29 366.976 505.466 365.968C503.658 364.944 502.242 363.488 501.218 361.6C500.21 359.712 499.706 357.464 499.706 354.856C499.706 352.312 500.162 350.056 501.074 348.088C502.002 346.104 503.338 344.544 505.082 343.408C506.842 342.272 508.962 341.704 511.442 341.704C513.89 341.704 515.946 342.224 517.61 343.264C519.274 344.304 520.538 345.76 521.402 347.632C522.266 349.488 522.698 351.664 522.698 354.16V355.936H505.538C505.522 357.344 505.746 358.592 506.21 359.68C506.674 360.768 507.362 361.624 508.274 362.248C509.186 362.856 510.314 363.16 511.658 363.16C513.034 363.16 514.226 362.856 515.234 362.248C516.258 361.624 516.938 360.68 517.274 359.416H522.602C522.314 361.144 521.626 362.608 520.538 363.808C519.466 365.008 518.154 365.92 516.602 366.544C515.066 367.168 513.458 367.48 511.778 367.48ZM505.514 352.312H517.178C517.178 351.112 516.962 350.032 516.53 349.072C516.114 348.096 515.482 347.328 514.634 346.768C513.786 346.192 512.714 345.904 511.418 345.904C510.138 345.904 509.058 346.216 508.178 346.84C507.298 347.464 506.634 348.272 506.186 349.264C505.738 350.24 505.514 351.256 505.514 352.312ZM534.687 367L547.143 332.296H553.479L565.935 367H560.079L556.983 358.288H543.687L540.567 367H534.687ZM545.079 353.104H555.519L550.311 337.96L545.079 353.104ZM578.228 367.48C576.5 367.48 574.86 367.208 573.308 366.664C571.772 366.104 570.476 365.232 569.42 364.048C568.38 362.864 567.724 361.336 567.452 359.464H572.588C572.812 360.376 573.204 361.12 573.764 361.696C574.34 362.272 575.012 362.696 575.78 362.968C576.564 363.224 577.372 363.352 578.204 363.352C579.692 363.352 580.892 363.096 581.804 362.584C582.716 362.072 583.172 361.28 583.172 360.208C583.172 359.424 582.916 358.8 582.404 358.336C581.908 357.872 581.092 357.52 579.956 357.28L575.252 356.2C573.14 355.736 571.452 354.968 570.188 353.896C568.924 352.824 568.284 351.312 568.268 349.36C568.252 347.888 568.62 346.576 569.372 345.424C570.124 344.272 571.244 343.368 572.732 342.712C574.22 342.04 576.052 341.704 578.228 341.704C581.124 341.704 583.444 342.352 585.188 343.648C586.948 344.928 587.852 346.76 587.9 349.144H582.932C582.756 348.072 582.252 347.24 581.42 346.648C580.588 346.04 579.508 345.736 578.18 345.736C576.804 345.736 575.676 346 574.796 346.528C573.916 347.056 573.476 347.864 573.476 348.952C573.476 349.704 573.804 350.296 574.46 350.728C575.132 351.16 576.148 351.528 577.508 351.832L581.972 352.912C583.252 353.232 584.3 353.664 585.116 354.208C585.932 354.752 586.564 355.352 587.012 356.008C587.476 356.648 587.796 357.312 587.972 358C588.164 358.672 588.26 359.296 588.26 359.872C588.26 361.472 587.844 362.84 587.012 363.976C586.196 365.096 585.036 365.96 583.532 366.568C582.044 367.176 580.276 367.48 578.228 367.48ZM601.491 367.48C599.763 367.48 598.123 367.208 596.571 366.664C595.035 366.104 593.739 365.232 592.683 364.048C591.643 362.864 590.987 361.336 590.715 359.464H595.851C596.075 360.376 596.467 361.12 597.027 361.696C597.603 362.272 598.275 362.696 599.043 362.968C599.827 363.224 600.635 363.352 601.467 363.352C602.955 363.352 604.155 363.096 605.067 362.584C605.979 362.072 606.435 361.28 606.435 360.208C606.435 359.424 606.179 358.8 605.667 358.336C605.171 357.872 604.355 357.52 603.219 357.28L598.515 356.2C596.403 355.736 594.715 354.968 593.451 353.896C592.187 352.824 591.547 351.312 591.531 349.36C591.515 347.888 591.883 346.576 592.635 345.424C593.387 344.272 594.507 343.368 595.995 342.712C597.483 342.04 599.315 341.704 601.491 341.704C604.387 341.704 606.707 342.352 608.451 343.648C610.211 344.928 611.115 346.76 611.163 349.144H606.195C606.019 348.072 605.515 347.24 604.683 346.648C603.851 346.04 602.771 345.736 601.443 345.736C600.067 345.736 598.939 346 598.059 346.528C597.179 347.056 596.739 347.864 596.739 348.952C596.739 349.704 597.067 350.296 597.723 350.728C598.395 351.16 599.411 351.528 600.771 351.832L605.235 352.912C606.515 353.232 607.563 353.664 608.379 354.208C609.195 354.752 609.827 355.352 610.275 356.008C610.739 356.648 611.059 357.312 611.235 358C611.427 358.672 611.523 359.296 611.523 359.872C611.523 361.472 611.107 362.84 610.275 363.976C609.459 365.096 608.299 365.96 606.795 366.568C605.307 367.176 603.539 367.48 601.491 367.48ZM626.359 367.48C623.975 367.48 621.871 366.976 620.047 365.968C618.239 364.944 616.823 363.488 615.799 361.6C614.791 359.712 614.287 357.464 614.287 354.856C614.287 352.312 614.743 350.056 615.655 348.088C616.583 346.104 617.919 344.544 619.663 343.408C621.423 342.272 623.543 341.704 626.023 341.704C628.471 341.704 630.527 342.224 632.191 343.264C633.855 344.304 635.119 345.76 635.983 347.632C636.847 349.488 637.279 351.664 637.279 354.16V355.936H620.119C620.103 357.344 620.327 358.592 620.791 359.68C621.255 360.768 621.943 361.624 622.855 362.248C623.767 362.856 624.895 363.16 626.239 363.16C627.615 363.16 628.807 362.856 629.815 362.248C630.839 361.624 631.519 360.68 631.855 359.416H637.183C636.895 361.144 636.207 362.608 635.119 363.808C634.047 365.008 632.735 365.92 631.183 366.544C629.647 367.168 628.039 367.48 626.359 367.48ZM620.095 352.312H631.759C631.759 351.112 631.543 350.032 631.111 349.072C630.695 348.096 630.063 347.328 629.215 346.768C628.367 346.192 627.295 345.904 625.999 345.904C624.719 345.904 623.639 346.216 622.759 346.84C621.879 347.464 621.215 348.272 620.767 349.264C620.319 350.24 620.095 351.256 620.095 352.312ZM650.442 367.192C648.474 367.192 646.946 366.936 645.858 366.424C644.786 365.896 644.042 365.152 643.626 364.192C643.21 363.232 643.002 362.088 643.002 360.76V346.312H638.97V342.184H643.17L644.634 334.816H648.834V342.16H654.378V346.312H648.834L648.858 360.544C648.858 361.28 648.938 361.824 649.098 362.176C649.274 362.512 649.546 362.736 649.914 362.848C650.298 362.944 650.802 362.992 651.426 362.992H654.498V366.688C654.162 366.816 653.666 366.928 653.01 367.024C652.37 367.136 651.514 367.192 650.442 367.192Z" fill="black"/>
<path d="M212.501 461.72H218.069V463.064C218.069 464.6 217.813 466.088 217.301 467.528C216.821 468.968 216.085 470.312 215.093 471.56C214.101 472.776 212.885 473.88 211.445 474.872C210.037 475.832 208.405 476.648 206.549 477.32C204.693 477.992 202.629 478.472 200.357 478.76L198.005 473.816C199.989 473.56 201.749 473.176 203.285 472.664C204.853 472.12 206.213 471.496 207.365 470.792C208.517 470.056 209.477 469.272 210.245 468.44C211.013 467.608 211.573 466.728 211.925 465.8C212.309 464.872 212.501 463.96 212.501 463.064V461.72ZM214.373 461.72H219.893V463.064C219.893 463.96 220.069 464.872 220.421 465.8C220.805 466.728 221.381 467.608 222.149 468.44C222.917 469.272 223.877 470.056 225.029 470.792C226.213 471.496 227.573 472.12 229.109 472.664C230.645 473.176 232.405 473.56 234.389 473.816L232.037 478.76C229.765 478.472 227.701 477.992 225.845 477.32C223.989 476.648 222.341 475.832 220.901 474.872C219.493 473.88 218.293 472.776 217.301 471.56C216.341 470.312 215.605 468.968 215.093 467.528C214.613 466.088 214.373 464.6 214.373 463.064V461.72ZM212.837 485H219.221V501.272H212.837V485ZM196.085 481.304H236.309V486.44H196.085V481.304ZM199.637 459.08H232.613V464.12H199.637V459.08ZM250.657 458.84H255.937V463.064C255.937 465.848 255.473 468.52 254.545 471.08C253.617 473.608 252.209 475.816 250.321 477.704C248.433 479.592 246.049 481 243.169 481.928L240.049 476.84C241.905 476.264 243.505 475.496 244.849 474.536C246.193 473.544 247.281 472.44 248.113 471.224C248.977 469.976 249.617 468.664 250.033 467.288C250.449 465.88 250.657 464.472 250.657 463.064V458.84ZM251.953 458.84H257.137V463.064C257.137 464.44 257.345 465.8 257.761 467.144C258.177 468.456 258.785 469.704 259.585 470.888C260.417 472.04 261.489 473.064 262.801 473.96C264.113 474.856 265.681 475.576 267.505 476.12L264.385 481.16C261.537 480.264 259.185 478.92 257.329 477.128C255.505 475.336 254.145 473.24 253.249 470.84C252.385 468.408 251.953 465.816 251.953 463.064V458.84ZM246.865 485.24H277.153V501.272H270.769V490.328H246.865V485.24ZM270.769 456.824H277.153V483.32H270.769V456.824ZM295.63 483.848H302.014V491.048H295.63V483.848ZM315.07 456.824H321.454V501.272H315.07V456.824ZM285.358 493.88L284.59 488.696C287.278 488.696 290.206 488.68 293.374 488.648C296.542 488.616 299.79 488.504 303.118 488.312C306.478 488.12 309.71 487.816 312.814 487.4L313.246 492.008C310.014 492.584 306.75 493.016 303.454 493.304C300.19 493.56 297.022 493.72 293.95 493.784C290.878 493.848 288.014 493.88 285.358 493.88ZM285.454 461.72H312.238V466.712H285.454V461.72ZM298.846 468.44C301.022 468.44 302.942 468.792 304.606 469.496C306.27 470.2 307.566 471.176 308.494 472.424C309.454 473.672 309.934 475.128 309.934 476.792C309.934 478.424 309.454 479.88 308.494 481.16C307.566 482.408 306.27 483.384 304.606 484.088C302.942 484.792 301.022 485.144 298.846 485.144C296.67 485.144 294.75 484.792 293.086 484.088C291.422 483.384 290.11 482.408 289.15 481.16C288.222 479.88 287.758 478.424 287.758 476.792C287.758 475.128 288.222 473.672 289.15 472.424C290.11 471.176 291.422 470.2 293.086 469.496C294.75 468.792 296.67 468.44 298.846 468.44ZM298.846 473.24C297.374 473.24 296.174 473.56 295.246 474.2C294.318 474.808 293.854 475.672 293.854 476.792C293.854 477.944 294.318 478.824 295.246 479.432C296.174 480.04 297.374 480.344 298.846 480.344C300.318 480.344 301.518 480.04 302.446 479.432C303.374 478.824 303.838 477.944 303.838 476.792C303.838 475.672 303.374 474.808 302.446 474.2C301.518 473.56 300.318 473.24 298.846 473.24ZM295.63 456.968H302.062V464.6H295.63V456.968ZM338.538 460.232H343.674V466.664C343.674 469.416 343.434 472.104 342.954 474.728C342.474 477.32 341.722 479.736 340.698 481.976C339.706 484.216 338.442 486.216 336.906 487.976C335.37 489.704 333.562 491.08 331.482 492.104L327.642 486.968C329.53 486.104 331.146 484.952 332.49 483.512C333.866 482.072 335.002 480.44 335.898 478.616C336.794 476.792 337.45 474.872 337.866 472.856C338.314 470.808 338.538 468.744 338.538 466.664V460.232ZM339.786 460.232H344.922V466.664C344.922 468.68 345.114 470.664 345.498 472.616C345.914 474.568 346.538 476.424 347.37 478.184C348.234 479.912 349.306 481.464 350.586 482.84C351.866 484.216 353.402 485.352 355.194 486.248L351.306 491.336C349.322 490.312 347.594 488.968 346.122 487.304C344.682 485.608 343.498 483.672 342.57 481.496C341.642 479.288 340.938 476.936 340.458 474.44C340.01 471.912 339.786 469.32 339.786 466.664V460.232ZM356.922 456.824H363.354V501.272H356.922V456.824ZM361.962 473.912H369.786V479.192H361.962V473.912ZM415.353 456.824H421.785V501.272H415.353V456.824ZM389.385 460.328H394.041V467.816C394.041 470.088 393.945 472.376 393.753 474.68C393.561 476.984 393.209 479.192 392.697 481.304C392.217 483.384 391.513 485.288 390.585 487.016C389.689 488.744 388.505 490.216 387.033 491.432L382.953 487.016C384.361 485.896 385.497 484.6 386.361 483.128C387.225 481.656 387.865 480.072 388.281 478.376C388.729 476.68 389.017 474.936 389.145 473.144C389.305 471.32 389.385 469.544 389.385 467.816V460.328ZM390.873 460.328H395.385V467.816C395.385 469.512 395.449 471.256 395.577 473.048C395.737 474.84 396.041 476.616 396.489 478.376C396.937 480.104 397.593 481.736 398.457 483.272C399.353 484.808 400.521 486.168 401.961 487.352L398.505 492.056C396.873 490.808 395.545 489.272 394.521 487.448C393.529 485.624 392.761 483.608 392.217 481.4C391.705 479.192 391.353 476.92 391.161 474.584C390.969 472.248 390.873 469.992 390.873 467.816V460.328ZM401.577 460.328H406.089V467.816C406.089 470.024 405.993 472.296 405.801 474.632C405.641 476.968 405.289 479.24 404.745 481.448C404.201 483.624 403.433 485.624 402.441 487.448C401.449 489.272 400.137 490.808 398.505 492.056L395.049 487.352C396.489 486.168 397.641 484.824 398.505 483.32C399.369 481.784 400.025 480.152 400.473 478.424C400.921 476.664 401.209 474.888 401.337 473.096C401.497 471.304 401.577 469.544 401.577 467.816V460.328ZM403.065 460.328H407.673V467.816C407.673 469.576 407.737 471.368 407.865 473.192C408.025 474.984 408.329 476.728 408.777 478.424C409.225 480.12 409.881 481.704 410.745 483.176C411.609 484.648 412.745 485.928 414.153 487.016L410.265 491.624C408.761 490.44 407.529 488.984 406.569 487.256C405.609 485.496 404.873 483.56 404.361 481.448C403.881 479.304 403.545 477.08 403.353 474.776C403.161 472.44 403.065 470.12 403.065 467.816V460.328ZM430.422 486.056H434.262C436.854 486.056 439.286 486.04 441.558 486.008C443.83 485.944 446.038 485.832 448.182 485.672C450.358 485.48 452.582 485.208 454.854 484.856L455.43 489.944C453.126 490.296 450.854 490.568 448.614 490.76C446.374 490.952 444.086 491.08 441.75 491.144C439.414 491.176 436.918 491.192 434.262 491.192H430.422V486.056ZM430.422 460.472H452.934V465.656H436.758V487.736H430.422V460.472ZM435.318 472.856H451.062V477.848H435.318V472.856ZM458.694 456.824H465.078V501.272H458.694V456.824ZM489.986 473.144H497.282V478.28H489.986V473.144ZM504.29 456.776H510.386V501.224H504.29V456.776ZM495.266 457.496H501.218V499.256H495.266V457.496ZM482.21 459.896C484.162 459.896 485.858 460.552 487.298 461.864C488.77 463.144 489.89 465 490.658 467.432C491.458 469.832 491.858 472.712 491.858 476.072C491.858 479.4 491.458 482.28 490.658 484.712C489.89 487.144 488.77 489.016 487.298 490.328C485.858 491.608 484.146 492.248 482.162 492.248C480.242 492.248 478.546 491.608 477.074 490.328C475.634 489.016 474.514 487.144 473.714 484.712C472.946 482.28 472.562 479.4 472.562 476.072C472.562 472.712 472.946 469.832 473.714 467.432C474.514 465 475.634 463.144 477.074 461.864C478.546 460.552 480.258 459.896 482.21 459.896ZM482.21 465.944C481.41 465.944 480.722 466.312 480.146 467.048C479.57 467.784 479.122 468.904 478.802 470.408C478.514 471.88 478.37 473.768 478.37 476.072C478.37 478.312 478.514 480.184 478.802 481.688C479.122 483.192 479.57 484.328 480.146 485.096C480.722 485.832 481.41 486.2 482.21 486.2C483.01 486.2 483.698 485.832 484.274 485.096C484.882 484.328 485.33 483.192 485.618 481.688C485.906 480.184 486.05 478.312 486.05 476.072C486.05 473.768 485.906 471.88 485.618 470.408C485.33 468.904 484.882 467.784 484.274 467.048C483.698 466.312 483.01 465.944 482.21 465.944ZM516.382 490.904H556.654V496.136H516.382V490.904ZM519.454 460.616H553.342V465.752H519.454V460.616ZM519.694 479.048H553.198V484.136H519.694V479.048ZM525.502 465.368H531.886V479.528H525.502V465.368ZM540.91 465.368H547.294V479.528H540.91V465.368ZM578.298 473.144H585.594V478.28H578.298V473.144ZM592.602 456.776H598.698V501.224H592.602V456.776ZM583.578 457.496H589.53V499.256H583.578V457.496ZM570.522 459.896C572.474 459.896 574.17 460.552 575.61 461.864C577.082 463.144 578.202 465 578.97 467.432C579.77 469.832 580.17 472.712 580.17 476.072C580.17 479.4 579.77 482.28 578.97 484.712C578.202 487.144 577.082 489.016 575.61 490.328C574.17 491.608 572.458 492.248 570.474 492.248C568.554 492.248 566.858 491.608 565.386 490.328C563.946 489.016 562.826 487.144 562.026 484.712C561.258 482.28 560.874 479.4 560.874 476.072C560.874 472.712 561.258 469.832 562.026 467.432C562.826 465 563.946 463.144 565.386 461.864C566.858 460.552 568.57 459.896 570.522 459.896ZM570.522 465.944C569.722 465.944 569.034 466.312 568.458 467.048C567.882 467.784 567.434 468.904 567.114 470.408C566.826 471.88 566.682 473.768 566.682 476.072C566.682 478.312 566.826 480.184 567.114 481.688C567.434 483.192 567.882 484.328 568.458 485.096C569.034 485.832 569.722 486.2 570.522 486.2C571.322 486.2 572.01 485.832 572.586 485.096C573.194 484.328 573.642 483.192 573.93 481.688C574.218 480.184 574.362 478.312 574.362 476.072C574.362 473.768 574.218 471.88 573.93 470.408C573.642 468.904 573.194 467.784 572.586 467.048C572.01 466.312 571.322 465.944 570.522 465.944ZM622.359 465.8H629.367V470.984H622.359V465.8ZM636.471 456.824H642.567V486.968H636.471V456.824ZM627.639 457.688H633.591V482.84H627.639V457.688ZM624.423 484.712H629.847V485.672C629.847 487.592 629.463 489.416 628.695 491.144C627.959 492.84 626.855 494.36 625.383 495.704C623.911 497.048 622.103 498.184 619.959 499.112C617.815 500.072 615.351 500.744 612.567 501.128L610.263 496.184C612.183 495.928 613.895 495.56 615.399 495.08C616.935 494.568 618.263 493.96 619.383 493.256C620.503 492.552 621.431 491.8 622.167 491C622.935 490.168 623.495 489.304 623.847 488.408C624.231 487.512 624.423 486.6 624.423 485.672V484.712ZM625.335 484.712H630.759V485.672C630.759 486.6 630.935 487.512 631.287 488.408C631.671 489.304 632.231 490.168 632.967 491C633.735 491.8 634.679 492.552 635.799 493.256C636.919 493.96 638.231 494.568 639.735 495.08C641.271 495.56 642.999 495.928 644.919 496.184L642.615 501.128C639.831 500.744 637.367 500.072 635.223 499.112C633.079 498.184 631.271 497.048 629.799 495.704C628.327 494.36 627.207 492.84 626.439 491.144C625.703 489.416 625.335 487.592 625.335 485.672V484.712ZM612.519 459.56H617.511V464.6C617.511 467.096 617.159 469.544 616.455 471.944C615.751 474.312 614.663 476.44 613.191 478.328C611.719 480.216 609.799 481.672 607.431 482.696L604.071 477.848C606.087 476.92 607.719 475.752 608.967 474.344C610.215 472.904 611.111 471.352 611.655 469.688C612.231 467.992 612.519 466.296 612.519 464.6V459.56ZM613.767 459.56H618.663V464.6C618.663 466.296 618.919 467.944 619.431 469.544C619.975 471.112 620.807 472.568 621.927 473.912C623.047 475.224 624.519 476.312 626.343 477.176L622.935 482.024C620.759 481 618.983 479.608 617.607 477.848C616.263 476.056 615.287 474.024 614.679 471.752C614.071 469.48 613.767 467.096 613.767 464.6V459.56Z" fill="black"/>
<rect x="178" y="90" width="485" height="215" rx="40" fill="white" stroke="#B8860B" stroke-width="10"/>
<ellipse cx="558.875" cy="200.875" rx="57.375" ry="50.625" fill="url(#paint0_linear_603_193)"/>
<path d="M582.178 169.68L579.5 211.417C579.185 215.932 579.71 219.24 581.075 221.34C582.44 223.335 584.33 224.332 586.745 224.332C589.685 224.332 592.258 223.492 594.463 221.812C596.773 220.132 598.663 217.927 600.133 215.197C601.603 212.467 602.705 209.37 603.44 205.905C604.28 202.335 604.7 198.712 604.7 195.037C604.7 189.997 603.913 184.905 602.338 179.76C600.763 174.615 598.085 169.995 594.305 165.9C590.63 161.805 585.748 158.445 579.658 155.82C573.568 153.195 566.008 151.882 556.978 151.882C548.578 151.882 541.228 153.405 534.928 156.45C528.628 159.495 523.325 163.432 519.02 168.263C514.82 173.092 511.67 178.552 509.57 184.642C507.47 190.627 506.42 196.665 506.42 202.755C506.525 211.575 507.995 219.03 510.83 225.12C513.665 231.21 517.393 236.145 522.013 239.925C526.633 243.705 531.935 246.435 537.92 248.115C543.905 249.69 550.048 250.425 556.348 250.32C560.443 250.215 564.065 250.005 567.215 249.69C570.47 249.375 573.41 248.955 576.035 248.43C578.66 247.8 581.023 247.117 583.123 246.382C585.328 245.647 587.428 244.807 589.423 243.862V254.415C585.433 256.2 580.445 257.618 574.46 258.668C568.58 259.718 562.438 260.243 556.033 260.243C545.743 260.453 536.713 259.088 528.943 256.147C521.173 253.207 514.715 249.112 509.57 243.862C504.425 238.612 500.54 232.47 497.915 225.435C495.395 218.4 494.135 210.84 494.135 202.755C494.135 193.2 495.815 184.642 499.175 177.082C502.64 169.522 507.208 163.17 512.878 158.025C518.653 152.775 525.32 148.785 532.88 146.055C540.545 143.325 548.578 141.96 556.978 141.96C567.058 141.96 575.878 143.535 583.438 146.685C590.998 149.835 597.245 153.93 602.18 158.97C607.115 164.01 610.79 169.68 613.205 175.98C615.725 182.28 616.985 188.632 616.985 195.037C616.985 201.127 616.145 206.587 614.465 211.417C612.89 216.142 610.685 220.185 607.85 223.545C605.015 226.8 601.708 229.32 597.928 231.105C594.148 232.89 590.105 233.835 585.8 233.94C580.445 234.15 576.403 233.047 573.673 230.632C570.943 228.112 569.158 225.12 568.318 221.655C566.113 225.645 563.173 228.742 559.498 230.947C555.928 233.047 551.938 234.045 547.528 233.94C543.013 233.835 539.233 232.942 536.188 231.262C533.143 229.477 530.675 227.272 528.785 224.647C526.895 222.022 525.53 219.135 524.69 215.985C523.955 212.835 523.588 209.79 523.588 206.85C523.588 200.76 524.428 195.352 526.108 190.627C527.893 185.797 530.255 181.755 533.195 178.5C536.24 175.245 539.705 172.777 543.59 171.097C547.58 169.417 551.78 168.63 556.19 168.735C559.655 168.84 562.543 169.47 564.853 170.625C567.163 171.675 569 172.935 570.365 174.405L570.838 169.68H582.178ZM535.873 207.007C535.873 209.107 536.083 211.207 536.503 213.307C537.028 215.302 537.815 217.14 538.865 218.82C539.915 220.395 541.28 221.707 542.96 222.757C544.745 223.702 546.898 224.175 549.418 224.175C552.463 224.175 555.14 223.387 557.45 221.812C559.865 220.132 561.86 217.927 563.435 215.197C565.01 212.362 566.165 209.055 566.9 205.275C567.74 201.495 568.16 197.4 568.16 192.99C568.16 191.415 568.003 189.787 567.688 188.107C567.478 186.322 566.953 184.747 566.113 183.382C565.273 181.912 564.013 180.705 562.333 179.76C560.758 178.815 558.658 178.342 556.033 178.342C552.568 178.237 549.523 179.13 546.898 181.02C544.378 182.91 542.278 185.325 540.598 188.265C539.023 191.1 537.815 194.197 536.975 197.557C536.24 200.917 535.873 204.067 535.873 207.007Z" fill="black"/>
<path d="M304.256 174.408C300.608 170.376 296.288 167.208 291.296 164.904C286.304 162.6 281.264 161.448 276.176 161.448C271.184 161.448 266.48 162.408 262.064 164.328C257.744 166.152 253.904 168.744 250.544 172.104C247.28 175.464 244.736 179.4 242.912 183.912C241.088 188.328 240.176 193.128 240.176 198.312C240.176 203.4 241.088 208.2 242.912 212.712C244.736 217.128 247.28 221.016 250.544 224.376C253.904 227.736 257.744 230.376 262.064 232.296C266.48 234.216 271.184 235.176 276.176 235.176C281.264 235.176 286.256 234.12 291.152 232.008C296.048 229.8 300.416 226.824 304.256 223.08L314.336 233.592C310.976 236.952 307.136 239.88 302.816 242.376C298.592 244.872 294.128 246.792 289.424 248.136C284.816 249.48 280.112 250.152 275.312 250.152C267.92 250.152 261.056 248.856 254.72 246.264C248.384 243.576 242.816 239.88 238.016 235.176C233.312 230.472 229.616 225 226.928 218.76C224.24 212.424 222.896 205.656 222.896 198.456C222.896 191.256 224.24 184.584 226.928 178.44C229.616 172.2 233.36 166.728 238.16 162.024C243.056 157.32 248.672 153.672 255.008 151.08C261.44 148.488 268.4 147.192 275.888 147.192C280.688 147.192 285.392 147.816 290 149.064C294.608 150.312 298.976 152.088 303.104 154.392C307.232 156.696 310.928 159.48 314.192 162.744L304.256 174.408ZM319.702 148.2H400.486V162.744H368.518V249H351.526V162.744H319.702V148.2ZM415.045 148.2H482.725L482.581 162.744H432.037V192.696H477.829V207.096H432.037V249H415.045V148.2Z" fill="black"/>
</g>
<defs>
<linearGradient id="paint0_linear_603_193" x1="555.497" y1="147.959" x2="559.046" y2="255.668" gradientUnits="userSpaceOnUse">
<stop offset="0.4" stop-color="#FFD700"/>
<stop offset="0.75" stop-color="#DAA520"/>
<stop offset="1" stop-color="#B8860B"/>
</linearGradient>
<clipPath id="clip0_603_193">
<rect width="595" height="842" fill="white" transform="matrix(0 1 -1 0 842 0)"/>
</clipPath>
</defs>
</svg>
